<svg width="442" height="433" viewBox="0 0 442 433" fill="none" xmlns="http://www.w3.org/2000/svg">
<g opacity="0.5">
<path d="M95.1833 334.06C98.1602 333.086 103.439 328.321 103.439 328.311C103.439 328.301 99.1921 325.885 98.9044 325.768C95.5604 324.384 88.2672 323.644 85.6178 326.674C85.1988 327.19 84.8941 327.785 84.7232 328.423C84.5523 329.061 84.5191 329.727 84.6256 330.379C84.7321 331.03 84.976 331.652 85.3416 332.206C85.7073 332.759 86.1867 333.231 86.749 333.592C89.0908 335.229 92.6034 334.879 95.1833 334.06Z" fill="#9C9C9C"/>
<path d="M150.165 288.127C150.235 288.127 147.982 283.81 147.803 283.547C145.819 280.624 140.123 276.015 136.214 277.106C135.569 277.305 134.974 277.635 134.468 278.075C133.962 278.514 133.555 279.053 133.274 279.657C132.994 280.26 132.845 280.915 132.839 281.578C132.832 282.242 132.968 282.899 133.237 283.508C134.299 286.119 137.424 287.737 140.044 288.448C143.12 289.286 150.155 288.137 150.165 288.127Z" fill="#9C9C9C"/>
<path d="M110.752 347.614C113.312 345.967 116.845 340.462 117.122 340.023C120.325 342.014 123.66 343.791 127.105 345.344C129.089 346.26 131.153 347.127 133.217 347.965C132.225 347.711 131.322 347.507 131.233 347.487C127.631 347.02 120.397 348.199 118.66 351.804C118.388 352.413 118.25 353.072 118.255 353.737C118.26 354.402 118.407 355.058 118.688 355.664C118.969 356.269 119.377 356.809 119.885 357.249C120.394 357.688 120.991 358.018 121.637 358.215C124.336 359.19 127.591 357.913 129.903 356.452C132.215 354.99 135.311 350.323 136.114 349.085L138.496 350.06C142.316 351.551 146.127 352.983 149.828 354.581C151.128 355.127 152.388 355.721 153.658 356.296C152.765 356.082 152.021 355.906 151.902 355.896C148.3 355.429 141.076 356.608 139.329 360.213C139.057 360.821 138.919 361.479 138.924 362.144C138.929 362.808 139.077 363.464 139.358 364.069C139.639 364.673 140.047 365.212 140.555 365.651C141.063 366.09 141.66 366.418 142.306 366.615C145.015 367.589 148.31 366.313 150.572 364.851C152.834 363.39 155.672 359.18 156.645 357.719C157.915 358.352 159.195 358.985 160.405 359.667C161.219 360.145 162.043 360.544 162.836 361.07L165.198 362.561C166.657 363.536 168.175 364.588 169.584 365.601C170.576 366.303 171.489 366.985 172.422 367.667C171.132 367.112 168.582 366.059 168.353 366.001C164.871 365.027 157.538 365.095 155.265 368.398C154.901 368.957 154.661 369.585 154.562 370.242C154.462 370.898 154.504 371.568 154.686 372.207C154.867 372.846 155.184 373.44 155.616 373.951C156.048 374.462 156.584 374.877 157.19 375.17C159.711 376.505 163.144 375.764 165.635 374.654C168.343 373.436 172.58 368.729 173.057 368.135C174.595 369.275 176.083 370.396 177.462 371.477C181.491 374.605 184.845 377.421 187.385 379.623L189.37 377.85C186.71 375.648 183.158 372.783 178.881 369.606C177.324 368.447 175.637 367.229 173.92 366.001C174.836 364.201 175.644 362.349 176.341 360.457C179.387 360.759 185.123 359.209 185.867 359.005C186.512 360.788 187.117 362.532 187.663 364.179C189.231 368.885 190.431 372.948 191.315 376.174L193.537 374.225C192.614 371.214 191.424 367.541 189.945 363.399C189.3 361.587 188.576 359.667 187.802 357.699C188.487 357.319 194.004 354.162 195.74 351.784C197.318 349.621 198.717 346.435 197.864 343.736C197.683 343.097 197.369 342.503 196.94 341.992C196.512 341.48 195.979 341.063 195.376 340.766C194.772 340.469 194.113 340.3 193.439 340.27C192.765 340.239 192.092 340.348 191.463 340.588C187.723 342.157 186.234 349.202 186.562 352.749C186.562 352.963 187.058 355.214 187.375 356.647C187.058 355.838 186.76 355.058 186.383 354.24C185.728 352.603 185.024 350.995 184.279 349.261C183.882 348.432 183.495 347.604 183.089 346.766C182.682 345.928 182.206 345.081 181.759 344.223C180.697 342.274 179.516 340.325 178.276 338.377C179.735 337.811 184.865 335.726 186.77 333.816C188.675 331.907 190.541 328.944 190.104 326.187C190.027 325.528 189.81 324.893 189.467 324.323C189.123 323.752 188.661 323.259 188.111 322.876C187.56 322.492 186.934 322.227 186.272 322.098C185.61 321.968 184.928 321.977 184.269 322.124C180.3 323.098 177.77 329.86 177.552 333.417C177.552 333.631 177.671 336.204 177.77 337.617C177.016 336.467 176.272 335.317 175.478 334.177C173.176 330.893 170.735 327.639 168.324 324.384C167.579 323.41 166.855 322.387 166.131 321.383C166.647 321.188 172.799 318.84 174.932 316.706C176.827 314.757 178.703 311.834 178.276 309.067C178.198 308.408 177.98 307.772 177.635 307.202C177.291 306.631 176.828 306.138 176.277 305.755C175.725 305.372 175.098 305.107 174.436 304.977C173.773 304.848 173.09 304.857 172.432 305.003C168.463 305.978 165.932 312.74 165.714 316.297C165.714 316.569 165.893 320.262 165.992 321.169C164.384 318.957 162.807 316.745 161.338 314.504C159.336 311.489 157.539 308.348 155.96 305.101C156.198 305.013 162.628 302.587 164.811 300.394C166.706 298.446 168.582 295.522 168.155 292.765C168.078 292.106 167.861 291.471 167.518 290.901C167.174 290.33 166.712 289.837 166.162 289.454C165.611 289.07 164.985 288.805 164.323 288.676C163.661 288.546 162.979 288.555 162.32 288.701C158.351 289.676 155.821 296.438 155.603 299.995C155.603 300.229 155.732 303.045 155.831 304.38L155.613 304.438C154.103 301.131 152.901 297.697 152.021 294.178C151.515 292.229 151.137 290.368 150.81 288.546C152.05 288.214 157.756 286.646 159.919 284.882C162.082 283.118 164.206 280.468 164.097 277.652C164.091 276.989 163.944 276.334 163.664 275.731C163.385 275.127 162.98 274.588 162.474 274.148C161.969 273.708 161.376 273.377 160.732 273.177C160.089 272.976 159.409 272.911 158.738 272.984C154.72 273.54 151.415 279.971 150.8 283.488C150.8 283.674 150.641 285.652 150.572 287.094C150.443 286.265 150.284 285.418 150.175 284.619C149.748 281.627 149.54 278.87 149.371 276.424C149.292 275.031 149.252 273.764 149.222 272.585C150.264 271.61 154.452 267.713 155.543 265.248C156.635 262.782 157.28 259.401 155.861 256.946C155.546 256.358 155.11 255.842 154.579 255.431C154.048 255.02 153.435 254.724 152.78 254.561C152.124 254.398 151.442 254.373 150.776 254.487C150.11 254.601 149.476 254.851 148.915 255.221C145.601 257.54 145.69 264.741 146.791 268.142C146.891 268.434 148.905 272.858 148.964 272.809L149.024 272.751C149.024 273.881 149.024 275.099 149.103 276.434C149.212 278.889 149.351 281.666 149.719 284.677C150.076 287.921 150.626 291.142 151.366 294.324C152.176 297.895 153.311 301.388 154.759 304.76L154.819 304.877C154.045 303.99 151.792 301.583 151.594 301.417C148.855 299.079 142.157 296.146 138.694 298.212C138.126 298.57 137.64 299.041 137.27 299.596C136.9 300.15 136.653 300.775 136.545 301.43C136.437 302.085 136.471 302.755 136.645 303.395C136.819 304.036 137.128 304.634 137.553 305.149C139.28 307.4 142.723 308.151 145.442 308.16C148.498 308.16 154.531 305.481 155.017 305.237C156.571 308.634 158.355 311.925 160.356 315.088C161.507 316.93 162.727 318.762 163.977 320.574C163.283 319.834 162.658 319.171 162.559 319.083C159.82 316.755 153.122 313.812 149.659 315.878C149.09 316.236 148.605 316.707 148.235 317.262C147.864 317.816 147.617 318.441 147.51 319.096C147.402 319.751 147.436 320.42 147.61 321.061C147.784 321.702 148.093 322.3 148.518 322.815C150.235 325.076 153.688 325.817 156.406 325.826C159.125 325.836 164.345 323.644 165.714 323.049C166.2 323.741 166.706 324.443 167.173 325.134C169.514 328.438 171.866 331.741 174.119 335.034C174.902 336.204 175.627 337.373 176.351 338.542C175.736 337.88 175.21 337.334 175.121 337.256C172.382 334.917 165.684 331.985 162.221 334.05C161.653 334.409 161.169 334.881 160.8 335.436C160.43 335.991 160.184 336.616 160.077 337.271C159.97 337.926 160.006 338.595 160.18 339.236C160.355 339.876 160.665 340.473 161.09 340.988C162.807 343.239 166.26 343.989 168.969 343.999C171.678 344.009 176.411 342.05 178.038 341.329C178.752 342.547 179.467 343.765 180.092 344.983C180.509 345.821 180.965 346.601 181.322 347.468C181.68 348.335 182.086 349.163 182.454 349.991C183.118 351.628 183.803 353.304 184.438 354.912C184.865 356.023 185.252 357.095 185.639 358.167C184.885 356.997 183.337 354.747 183.188 354.571C181.026 352.254 178.292 350.522 175.25 349.543C175.024 349.273 174.771 349.025 174.496 348.803C173.988 348.366 173.392 348.04 172.747 347.844C172.103 347.649 171.423 347.589 170.753 347.668C170.083 347.747 169.438 347.963 168.858 348.303C168.279 348.643 167.779 349.099 167.391 349.641C165.148 352.973 167.867 359.658 170.14 362.444C170.268 362.61 171.926 364.228 172.987 365.231L170.745 363.799C169.286 362.824 167.768 361.85 166.2 360.788L163.809 359.346C163.015 358.849 162.122 358.42 161.269 357.952C159.284 356.9 157.21 355.926 155.107 355.029C156 353.772 159.076 349.261 159.621 346.63C160.167 343.999 160.038 340.55 158.123 338.455C157.688 337.948 157.149 337.536 156.542 337.247C155.934 336.958 155.272 336.798 154.597 336.777C153.922 336.756 153.25 336.874 152.625 337.125C152 337.375 151.436 337.752 150.969 338.23C148.24 341.154 149.897 348.199 151.703 351.287C151.822 351.482 153.37 353.548 154.253 354.669C152.983 354.123 151.713 353.568 150.413 353.051C146.642 351.56 142.783 350.128 138.942 348.754C137.762 348.325 136.591 347.877 135.42 347.439C135.747 347 139.558 341.709 140.133 338.766C140.649 336.155 140.56 332.686 138.635 330.591C138.2 330.084 137.661 329.673 137.053 329.384C136.446 329.095 135.783 328.935 135.109 328.913C134.434 328.892 133.762 329.011 133.137 329.261C132.512 329.512 131.948 329.888 131.481 330.367C128.752 333.29 130.409 340.335 132.225 343.424C132.354 343.658 134.596 346.63 135.202 347.322C132.622 346.347 130.062 345.373 127.571 344.291C124.209 342.862 120.947 341.214 117.807 339.361C117.956 339.156 121.965 333.651 122.55 330.64C123.056 328.028 122.967 324.56 121.052 322.465C120.617 321.958 120.078 321.546 119.47 321.257C118.863 320.968 118.2 320.808 117.525 320.787C116.851 320.766 116.179 320.884 115.554 321.135C114.929 321.385 114.365 321.762 113.898 322.24C111.169 325.164 112.826 332.209 114.632 335.297C114.751 335.502 116.458 337.772 117.301 338.835L117.142 339C114.03 337.056 111.101 334.842 108.39 332.384C106.872 331.049 105.503 329.695 104.203 328.34C105.056 327.366 108.906 323.01 109.75 320.35C110.593 317.69 110.841 314.348 109.174 312.068C108.796 311.518 108.304 311.053 107.731 310.702C107.158 310.351 106.516 310.123 105.848 310.031C105.179 309.939 104.498 309.986 103.849 310.169C103.2 310.352 102.597 310.667 102.08 311.093C99.0432 313.744 99.9065 320.896 101.355 324.16C101.435 324.335 102.447 326.05 103.201 327.288C102.625 326.674 102.02 326.05 101.474 325.446C99.4897 323.186 97.7135 320.993 96.2053 319.035C95.3519 317.914 94.6077 316.891 93.9131 315.926C94.2604 314.562 95.5702 309.057 95.0741 306.377C94.578 303.698 93.2285 300.531 90.6684 299.284C90.0775 298.964 89.4247 298.771 88.7527 298.716C88.0806 298.661 87.4043 298.746 86.7678 298.965C86.1312 299.183 85.5488 299.531 85.0583 299.986C84.5678 300.44 84.1803 300.991 83.9209 301.603C82.4623 305.325 86.5802 311.278 89.3983 313.52C89.6464 313.714 93.8139 316.306 93.8337 316.238C93.8358 316.209 93.8358 316.18 93.8337 316.15C94.4787 317.125 95.1832 318.099 95.9671 319.191C97.4357 321.139 99.1226 323.419 101.117 325.729C103.241 328.242 105.511 330.633 107.914 332.891C110.598 335.411 113.504 337.693 116.596 339.712L116.716 339.78C115.574 339.458 112.34 338.669 112.082 338.64C108.48 338.172 101.256 339.351 99.5095 342.956C99.2374 343.565 99.0991 344.224 99.104 344.889C99.1088 345.554 99.2565 346.211 99.5375 346.816C99.8185 347.421 100.226 347.961 100.735 348.401C101.243 348.841 101.84 349.17 102.486 349.368C105.195 350.323 108.49 349.085 110.752 347.614Z" fill="#9C9C9C"/>
<path d="M296.396 100.427C298.52 103.916 306.17 109.031 306.18 109.031C306.19 109.031 308.085 103.058 308.165 102.659C308.978 98.1083 307.827 88.832 303.203 86.4154C302.418 86.0348 301.559 85.8208 300.683 85.7875C299.808 85.7543 298.935 85.9024 298.122 86.2222C297.308 86.5421 296.573 87.0265 295.962 87.6441C295.352 88.2616 294.882 88.9983 294.58 89.8064C293.142 93.1973 294.59 97.4652 296.396 100.427Z" fill="#9C9C9C"/>
<path d="M371.422 155.52C371.422 155.608 376.383 151.564 376.651 151.272C379.896 147.91 384.143 139.579 381.612 135.009C381.171 134.266 380.575 133.622 379.863 133.12C379.151 132.618 378.34 132.268 377.481 132.095C376.623 131.921 375.737 131.927 374.881 132.112C374.025 132.296 373.218 132.656 372.513 133.167C369.447 135.243 368.266 139.589 368.098 143.038C367.909 147.092 371.422 155.511 371.422 155.52Z" fill="#9C9C9C"/>
<path d="M283.407 123.686C286.275 126.385 294.392 129.192 295.037 129.406C293.399 133.962 292.073 138.62 291.068 143.35C290.462 146.098 289.936 148.894 289.45 151.7C289.45 150.385 289.45 149.206 289.45 149.04C289.014 144.441 285.412 135.788 280.262 134.668C279.401 134.503 278.515 134.519 277.661 134.713C276.806 134.907 276.003 135.276 275.304 135.796C274.605 136.315 274.025 136.973 273.602 137.728C273.179 138.482 272.923 139.315 272.849 140.173C272.413 143.808 274.973 147.549 277.513 149.917C280.053 152.285 286.96 154.877 288.785 155.52C288.607 156.592 288.418 157.673 288.25 158.745C287.426 163.919 286.632 169.084 285.689 174.131C285.362 175.905 284.965 177.649 284.578 179.393C284.578 178.224 284.578 177.24 284.578 177.093C284.142 172.484 280.54 163.841 275.39 162.711C274.529 162.548 273.643 162.565 272.789 162.761C271.936 162.956 271.134 163.326 270.435 163.847C269.737 164.367 269.158 165.026 268.736 165.78C268.314 166.535 268.059 167.368 267.987 168.226C267.551 171.851 270.101 175.593 272.641 177.97C275.181 180.348 281.423 182.667 283.556 183.446C283.11 185.22 282.663 186.993 282.147 188.689C281.76 189.839 281.482 190.969 281.036 192.109L279.785 195.471C278.922 197.575 278.039 199.758 277.136 201.804C276.521 203.217 275.906 204.562 275.29 205.916C275.638 204.153 276.283 200.684 276.283 200.391C276.561 195.773 274.298 186.691 269.416 184.801C268.59 184.51 267.711 184.394 266.837 184.459C265.962 184.525 265.111 184.77 264.34 185.18C263.568 185.591 262.893 186.156 262.359 186.839C261.825 187.523 261.444 188.309 261.24 189.147C260.248 192.664 262.232 196.747 264.336 199.485C266.697 202.506 273.971 206.364 274.884 206.842C273.891 209.073 272.84 211.246 271.847 213.273C268.97 219.188 266.31 224.157 264.207 227.967L267.074 229.974C269.158 226.077 271.818 220.805 274.675 214.569C275.727 212.299 276.809 209.853 277.89 207.329C280.472 207.955 283.089 208.427 285.729 208.742C286.225 212.64 289.867 219.305 290.343 220.162C288.23 221.477 286.166 222.734 284.191 223.884C278.585 227.197 273.653 229.867 269.793 231.884L272.919 234.076C276.541 232.069 280.927 229.536 285.818 226.505C287.972 225.18 290.244 223.719 292.556 222.199C293.241 222.939 298.897 228.883 302.479 230.364C305.723 231.699 310.228 232.527 313.453 230.686C314.227 230.281 314.905 229.721 315.443 229.041C315.981 228.362 316.367 227.579 316.576 226.743C316.785 225.907 316.812 225.037 316.655 224.19C316.498 223.343 316.161 222.538 315.666 221.828C312.57 217.629 303.064 217.814 298.579 219.246C298.321 219.334 295.553 220.562 293.826 221.37C294.769 220.747 295.692 220.143 296.654 219.49C298.569 218.203 300.445 216.869 302.459 215.446L305.336 213.253C306.329 212.532 307.252 211.665 308.224 210.866C310.437 208.976 312.59 206.969 314.704 204.864C315.855 206.501 320.022 212.279 323.029 214.091C326.035 215.904 330.362 217.385 333.825 216.04C334.652 215.755 335.409 215.302 336.046 214.71C336.683 214.119 337.185 213.402 337.522 212.607C337.858 211.812 338.019 210.956 337.996 210.095C337.973 209.234 337.765 208.388 337.387 207.612C334.976 203.003 325.539 201.765 320.895 202.516C320.608 202.564 317.333 203.49 315.547 203.997C316.807 202.74 318.077 201.483 319.308 200.157C322.88 196.357 326.373 192.362 329.865 188.465C330.937 187.256 332.029 186.068 333.1 184.879C333.507 185.463 338.3 192.43 341.673 194.467C344.65 196.27 349.006 197.76 352.479 196.416C353.306 196.13 354.061 195.676 354.697 195.084C355.333 194.492 355.835 193.775 356.17 192.98C356.505 192.185 356.666 191.329 356.642 190.469C356.618 189.609 356.41 188.763 356.032 187.987C353.62 183.378 344.184 182.141 339.54 182.891C339.193 182.94 334.48 184.255 333.299 184.645C335.68 182.014 338.072 179.412 340.542 176.937C343.855 173.586 347.385 170.448 351.11 167.544C351.299 167.817 356.27 175.115 359.723 177.201C362.7 179.003 367.056 180.484 370.529 179.149C371.355 178.863 372.111 178.409 372.747 177.817C373.383 177.225 373.884 176.508 374.22 175.713C374.555 174.918 374.716 174.063 374.692 173.203C374.668 172.342 374.46 171.497 374.081 170.721C371.67 166.112 362.233 164.874 357.59 165.634C357.282 165.634 353.7 166.677 352.003 167.184L351.864 166.921C355.697 164.099 359.778 161.617 364.059 159.505C366.401 158.317 368.703 157.313 371.005 156.378C371.789 157.829 375.45 164.426 378.348 166.638C381.245 168.85 385.294 170.701 388.866 169.746C389.719 169.551 390.521 169.182 391.219 168.662C391.917 168.143 392.496 167.485 392.918 166.731C393.34 165.977 393.596 165.145 393.669 164.288C393.741 163.431 393.63 162.568 393.341 161.756C391.456 156.884 382.228 154.663 377.524 154.935C377.266 154.935 374.676 155.374 372.801 155.695C373.793 155.296 374.885 154.857 375.877 154.487C379.608 153.094 383.101 152.041 386.217 151.135C387.983 150.629 389.6 150.161 391.108 149.83C392.637 150.862 398.838 154.945 402.391 155.579C405.943 156.212 410.438 156.056 413.177 153.581C413.842 153.021 414.381 152.33 414.757 151.553C415.132 150.775 415.337 149.929 415.358 149.069C415.378 148.208 415.214 147.353 414.876 146.559C414.538 145.765 414.033 145.05 413.395 144.461C409.426 141.021 400.208 143.204 396.149 145.542C395.792 145.747 390.682 149.537 390.761 149.596L390.85 149.654C389.392 149.985 387.824 150.365 386.117 150.804C382.992 151.652 379.449 152.636 375.679 153.951C371.597 155.348 367.602 156.974 363.712 158.823C359.346 160.862 355.173 163.275 351.239 166.034L351.11 166.141C352.023 164.923 354.484 161.435 354.642 161.142C356.865 157.06 358.721 147.9 355.059 144.168C354.432 143.568 353.683 143.103 352.861 142.805C352.039 142.506 351.162 142.38 350.288 142.435C349.414 142.491 348.561 142.725 347.784 143.124C347.008 143.524 346.326 144.078 345.781 144.753C343.38 147.549 343.41 152.051 344.184 155.423C345.057 159.223 350.247 165.956 350.663 166.492C346.735 169.402 343.009 172.566 339.51 175.963C337.456 177.912 335.462 179.978 333.477 182.053C334.241 180.971 334.906 179.997 334.986 179.851C337.208 175.778 339.064 166.609 335.402 162.887C334.777 162.283 334.029 161.816 333.208 161.516C332.387 161.216 331.51 161.089 330.635 161.145C329.761 161.2 328.908 161.436 328.132 161.836C327.357 162.237 326.676 162.794 326.134 163.471C323.723 166.258 323.753 170.76 324.527 174.131C325.301 177.503 329.627 183.388 330.788 184.908L328.526 187.315C324.934 191.212 321.372 195.061 317.75 198.754C316.48 200.06 315.17 201.298 313.87 202.545C314.545 201.57 315.11 200.771 315.18 200.596C317.402 196.523 319.258 187.354 315.597 183.632C314.97 183.029 314.222 182.563 313.401 182.262C312.579 181.962 311.702 181.835 310.827 181.889C309.952 181.943 309.099 182.178 308.322 182.577C307.545 182.976 306.863 183.531 306.319 184.207C303.918 187.003 303.947 191.505 304.721 194.876C305.495 198.248 309.395 203.558 310.774 205.38C309.405 206.608 308.035 207.846 306.646 208.986C305.654 209.736 304.811 210.525 303.798 211.236L300.871 213.361C298.966 214.657 297.001 215.992 295.106 217.21C293.786 218.057 292.526 218.847 291.246 219.646C292.536 218.359 294.997 215.797 295.215 215.563C297.575 212.216 299.024 208.331 299.423 204.279C299.703 203.919 299.949 203.534 300.157 203.129C300.573 202.372 300.822 201.536 300.888 200.678C300.953 199.819 300.835 198.957 300.539 198.146C300.243 197.336 299.777 196.595 299.171 195.973C298.565 195.351 297.833 194.861 297.021 194.535C292.06 192.713 284.251 198.014 281.323 201.639C281.145 201.853 279.537 204.377 278.545 205.984C278.982 204.952 279.418 203.958 279.855 202.886C280.728 200.781 281.542 198.657 282.415 196.367C282.802 195.247 283.199 194.116 283.586 192.976C283.973 191.836 284.29 190.618 284.658 189.429C285.441 186.643 286.096 183.797 286.692 180.903C288.567 181.654 295.285 184.216 298.817 184.099C302.35 183.982 306.755 182.872 308.928 179.88C309.457 179.193 309.832 178.405 310.029 177.567C310.227 176.728 310.243 175.858 310.075 175.014C309.907 174.169 309.561 173.368 309.057 172.664C308.553 171.959 307.904 171.367 307.152 170.925C302.558 168.382 293.995 172.465 290.542 175.603C290.323 175.807 288.101 178.331 286.91 179.744C287.247 178.009 287.605 176.275 287.902 174.501C288.736 169.386 289.42 164.192 290.135 159.008C290.343 157.42 290.581 155.842 290.81 154.263C291.474 154.536 299.393 157.751 303.352 157.615C306.865 157.498 311.29 156.387 313.453 153.396C313.982 152.71 314.358 151.922 314.556 151.084C314.754 150.246 314.771 149.376 314.604 148.532C314.437 147.687 314.092 146.886 313.589 146.181C313.086 145.477 312.438 144.884 311.687 144.441C307.083 141.908 298.52 145.981 295.066 149.128C294.808 149.362 291.613 153.026 290.849 154C291.355 150.521 291.842 147.052 292.556 143.652C293.446 139.057 294.636 134.523 296.118 130.078C296.426 130.205 304.672 133.606 308.73 133.469C312.243 133.343 316.668 132.242 318.831 129.25C319.36 128.563 319.736 127.775 319.935 126.936C320.133 126.097 320.149 125.227 319.983 124.381C319.816 123.536 319.47 122.734 318.968 122.029C318.465 121.323 317.817 120.729 317.065 120.286C312.461 117.752 303.908 121.825 300.445 124.972C300.216 125.177 297.785 127.954 296.654 129.299L296.396 129.153C297.988 124.725 299.98 120.447 302.35 116.369C303.64 114.108 304.989 112.013 306.319 110.006C307.787 110.795 314.545 114.313 318.226 114.595C321.739 114.848 326.273 114.225 328.744 111.487C329.346 110.861 329.807 110.118 330.097 109.306C330.387 108.494 330.499 107.631 330.427 106.774C330.355 105.916 330.1 105.083 329.678 104.329C329.257 103.574 328.678 102.916 327.98 102.396C323.693 99.3749 314.733 102.503 310.943 105.26C310.744 105.406 308.819 107.151 307.44 108.447C308.065 107.55 308.7 106.615 309.325 105.767C311.647 102.59 313.979 99.8134 316.053 97.3676C317.254 95.9937 318.365 94.766 319.407 93.6357C321.262 93.6357 328.734 93.7136 332.048 92.3202C335.363 90.9268 338.994 88.3544 339.927 84.8076C340.168 83.9786 340.229 83.1091 340.104 82.2557C339.98 81.4023 339.674 80.5842 339.205 79.855C338.737 79.1257 338.117 78.5017 337.387 78.0236C336.656 77.5455 335.831 77.2242 334.966 77.0805C329.746 76.34 323.257 83.1803 321.183 87.3313C321.004 87.6918 318.871 93.6259 318.96 93.6259H319.079C318.087 94.6978 316.946 95.8573 315.775 97.1533C313.642 99.5503 311.24 102.288 308.829 105.426C306.2 108.789 303.771 112.3 301.556 115.94C299.061 120.005 296.939 124.28 295.215 128.714L295.156 128.88C295.245 127.36 295.324 123.121 295.295 122.79C294.858 118.181 291.256 109.538 286.106 108.417C285.246 108.254 284.361 108.271 283.508 108.466C282.655 108.661 281.853 109.03 281.155 109.549C280.457 110.069 279.878 110.726 279.456 111.48C279.033 112.233 278.777 113.066 278.704 113.923C278.317 117.557 280.867 121.299 283.407 123.686Z" fill="#9C9C9C"/>
<path d="M343.42 295.211V291.947C343.42 275.138 365.091 274.408 365.091 262.442C365.091 257.248 360.785 253.857 354.375 253.857C347.359 253.857 342.924 257.609 342.924 262.929V264.264C342.924 265.589 342.19 266.213 340.83 266.213L327.663 265.726C326.432 265.726 325.569 265.121 325.569 264.283V262.949C325.569 248.332 337.387 238.286 354.752 238.286C371.739 238.286 382.694 247.719 382.694 261.857C382.694 281.93 360.656 282.057 360.656 293.038V295.211C360.689 295.489 360.658 295.771 360.565 296.035C360.471 296.3 360.318 296.54 360.117 296.738C359.915 296.936 359.67 297.086 359.401 297.178C359.132 297.269 358.845 297.3 358.562 297.267H345.514C345.231 297.3 344.944 297.269 344.674 297.178C344.405 297.086 344.161 296.936 343.959 296.738C343.758 296.54 343.604 296.3 343.511 296.035C343.418 295.771 343.387 295.489 343.42 295.211V295.211ZM342.309 314.699C342.309 309.379 347.111 305.023 352.896 305.023C358.443 305.023 363.365 309.379 363.365 314.699C363.365 320.019 358.403 324.375 352.777 324.375C347.151 324.375 342.309 320 342.309 314.68V314.699Z" fill="#263238"/>
<path d="M83.2462 156.748V153.913C83.2462 139.297 102.099 138.683 102.099 128.286C102.099 123.765 98.3585 120.832 92.8017 120.832C86.6993 120.832 82.879 124.086 82.879 128.705V129.864C82.879 131.014 82.244 131.54 81.0632 131.54L69.6222 131.121C68.5506 131.121 67.8064 130.595 67.8064 129.864V128.705C67.8064 116.038 78.0665 107.268 93.149 107.268C107.904 107.268 117.43 115.463 117.43 127.73C117.43 145.163 98.2791 145.27 98.2791 154.829V156.719C98.3077 156.96 98.2804 157.204 98.1993 157.433C98.1181 157.662 97.9852 157.87 97.8106 158.042C97.6359 158.214 97.4239 158.344 97.1906 158.424C96.9573 158.503 96.7086 158.53 96.4632 158.502H85.062C84.8194 158.529 84.5736 158.503 84.3427 158.425C84.1118 158.347 83.9016 158.219 83.7275 158.051C83.5534 157.883 83.4198 157.679 83.3365 157.453C83.2533 157.228 83.2224 156.987 83.2462 156.748V156.748ZM82.2539 173.654C82.2539 169.035 86.4214 165.255 91.4423 165.255C96.2549 165.255 100.541 169.035 100.541 173.654C100.541 178.273 96.2548 182.053 91.3431 182.053C89.0098 182.111 86.7479 181.261 85.0507 179.687C83.3535 178.114 82.3589 175.945 82.2837 173.654H82.2539Z" fill="#92E3A9"/>
<path d="M322.741 44.935V43.5026C322.741 36.1264 332.247 35.8048 332.247 30.5528C332.247 28.2727 330.352 26.7818 327.543 26.7818C324.467 26.7818 322.523 28.4286 322.523 30.7672V31.3518C322.523 31.9364 322.195 32.1995 321.6 32.1995L315.825 31.9852C315.279 31.9852 314.902 31.7221 314.902 31.3518V30.7672C314.902 24.3458 320.091 19.9415 327.712 19.9415C335.164 19.9415 339.977 24.0827 339.977 30.2897C339.977 39.0593 330.302 39.147 330.302 43.9314V44.9058C330.317 45.0278 330.303 45.1515 330.261 45.2674C330.22 45.3834 330.152 45.4886 330.063 45.575C329.974 45.6614 329.866 45.7268 329.748 45.7661C329.629 45.8055 329.503 45.8178 329.379 45.8022H323.654C323.533 45.8173 323.41 45.8056 323.294 45.7678C323.178 45.73 323.073 45.6671 322.985 45.5839C322.898 45.5006 322.83 45.3991 322.788 45.2867C322.745 45.1744 322.729 45.0542 322.741 44.935V44.935ZM322.255 53.4805C322.191 52.5694 322.408 51.6606 322.877 50.8721C323.347 50.0837 324.047 49.4522 324.886 49.0598C325.726 48.6674 326.667 48.5321 327.586 48.6717C328.505 48.8112 329.36 49.2191 330.04 49.8423C330.72 50.4655 331.193 51.2751 331.398 52.1659C331.603 53.0567 331.53 53.9874 331.189 54.8371C330.848 55.6867 330.254 56.416 329.486 56.93C328.717 57.444 327.809 57.719 326.879 57.7192C326.291 57.74 325.706 57.6468 325.155 57.4449C324.605 57.2429 324.1 56.9363 323.67 56.5425C323.241 56.1487 322.895 55.6755 322.652 55.1501C322.409 54.6247 322.274 54.0573 322.255 53.4805Z" fill="#92E3A9"/>
<path d="M44.081 241.999V240.196C44.081 230.9 56.0676 230.501 56.0676 223.875C56.0676 221 53.6862 219.129 50.114 219.129C46.2342 219.129 43.7833 221.205 43.7833 224.148V224.878C43.7833 225.619 43.3765 225.95 42.6223 225.95L35.3391 225.687C34.6544 225.687 34.1781 225.346 34.1781 224.878V224.148C34.1781 216.06 40.7172 210.506 50.3224 210.506C59.7192 210.506 65.7721 215.719 65.7721 223.543C65.7721 234.642 53.5869 234.71 53.5869 240.8V241.999C53.6062 242.153 53.5894 242.309 53.5379 242.456C53.4864 242.603 53.4014 242.737 53.2895 242.847C53.1776 242.956 53.0417 243.04 52.8921 243.09C52.7425 243.141 52.5831 243.158 52.426 243.139H45.2221C45.0666 243.154 44.9094 243.136 44.7623 243.083C44.6152 243.031 44.4819 242.948 44.3723 242.838C44.2627 242.729 44.1796 242.596 44.1292 242.451C44.0788 242.306 44.0623 242.151 44.081 241.999V241.999ZM43.4658 252.766C43.3881 251.618 43.6641 250.473 44.258 249.482C44.8518 248.49 45.736 247.697 46.7953 247.205C47.8547 246.714 49.0402 246.547 50.1974 246.726C51.3547 246.906 52.4302 247.423 53.2838 248.211C54.1374 248.999 54.7297 250.021 54.9835 251.145C55.2373 252.268 55.1409 253.44 54.7068 254.509C54.2727 255.577 53.521 256.493 52.5497 257.136C51.5783 257.779 50.4322 258.121 49.2606 258.115C47.7673 258.163 46.316 257.626 45.2256 256.623C44.1353 255.619 43.4951 254.232 43.4459 252.766H43.4658Z" stroke="#263238" stroke-miterlimit="10"/>
<path d="M135.37 73.7969V72.5594C135.37 66.1673 143.616 65.8847 143.616 61.3342C143.616 59.3854 141.979 58.07 139.538 58.07C136.869 58.07 135.182 59.4926 135.182 61.5194V62.0261C135.182 62.5328 134.904 62.7569 134.388 62.7569L129.426 62.5717C128.96 62.5717 128.633 62.3476 128.633 62.0261V61.5194C128.633 55.9555 133.128 52.1359 139.726 52.1359C146.325 52.1359 150.254 55.7217 150.254 61.1004C150.254 68.7397 141.87 68.7884 141.87 72.9686V73.7969C141.882 73.9022 141.871 74.0091 141.835 74.1094C141.8 74.2097 141.742 74.3008 141.665 74.3758C141.589 74.4509 141.496 74.5079 141.394 74.5426C141.292 74.5774 141.183 74.5889 141.076 74.5764H136.114C136.011 74.5813 135.908 74.564 135.812 74.5259C135.716 74.4877 135.63 74.4296 135.559 74.3555C135.488 74.2813 135.435 74.193 135.402 74.0965C135.369 74.0001 135.359 73.8978 135.37 73.7969V73.7969ZM134.953 81.2023C134.91 80.4238 135.105 79.6502 135.514 78.9817C135.922 78.3132 136.526 77.7804 137.246 77.4523C137.967 77.1241 138.771 77.0157 139.554 77.141C140.338 77.2663 141.066 77.6196 141.643 78.1551C142.22 78.6907 142.62 79.3839 142.792 80.1453C142.963 80.9066 142.899 81.701 142.606 82.4257C142.313 83.1505 141.805 83.7723 141.149 84.2108C140.492 84.6494 139.717 84.8844 138.923 84.8856C137.898 84.9198 136.901 84.5531 136.151 83.8662C135.401 83.1792 134.96 82.2282 134.924 81.2218L134.953 81.2023Z" fill="#263238"/>
<path d="M282.226 340.93V339.693C282.226 333.301 290.472 333.028 290.472 328.468C290.472 326.519 288.835 325.203 286.394 325.203C283.725 325.203 282.038 326.626 282.038 328.653V329.16C282.038 329.666 281.76 329.9 281.244 329.9L276.283 329.715C275.816 329.715 275.489 329.481 275.489 329.16V328.653C275.489 323.089 279.984 319.269 286.582 319.269C293.181 319.269 297.22 322.855 297.22 328.244C297.22 335.873 288.835 335.922 288.835 340.102V340.93C288.847 341.036 288.835 341.143 288.8 341.244C288.765 341.345 288.707 341.436 288.631 341.512C288.554 341.588 288.462 341.646 288.36 341.682C288.258 341.717 288.149 341.73 288.041 341.72H283.08C282.967 341.74 282.852 341.735 282.742 341.704C282.632 341.672 282.531 341.615 282.448 341.538C282.365 341.462 282.301 341.366 282.263 341.261C282.224 341.155 282.212 341.042 282.226 340.93V340.93ZM281.81 348.336C281.766 347.557 281.961 346.784 282.37 346.115C282.778 345.447 283.382 344.914 284.102 344.586C284.823 344.258 285.627 344.149 286.41 344.274C287.194 344.4 287.922 344.753 288.499 345.289C289.076 345.824 289.476 346.517 289.648 347.279C289.82 348.04 289.755 348.834 289.462 349.559C289.169 350.284 288.661 350.906 288.005 351.344C287.348 351.783 286.573 352.018 285.779 352.019C284.757 352.043 283.768 351.669 283.026 350.979C282.284 350.289 281.851 349.339 281.819 348.336H281.81Z" stroke="#263238" stroke-miterlimit="10"/>
<path d="M243.379 363.107C243.31 362.903 243.24 362.698 243.161 362.494C243.081 362.289 243.022 362.075 242.942 361.87C242.863 361.665 242.803 361.461 242.724 361.256C242.645 361.051 242.585 360.837 242.506 360.632C242.426 360.428 242.367 360.223 242.287 360.019C242.208 359.814 242.149 359.6 242.069 359.395L241.851 358.781C241.781 358.567 241.702 358.362 241.633 358.157L241.414 357.544C241.345 357.329 241.265 357.125 241.196 356.92L240.978 356.306C240.908 356.092 240.829 355.887 240.759 355.682L240.551 355.03C240.482 354.815 240.402 354.611 240.333 354.406L240.104 353.792C240.035 353.578 239.966 353.373 239.886 353.168C239.807 352.964 239.747 352.759 239.668 352.555C239.588 352.35 239.529 352.136 239.45 351.931C239.37 351.726 239.311 351.522 239.231 351.317C235.996 341.651 225.994 334.557 214.99 334.557C204.323 334.557 195.045 340.657 191.176 349.251C191.076 349.446 190.987 349.651 190.898 349.846L190.63 350.45C190.531 350.645 190.441 350.84 190.352 351.044C190.263 351.249 190.163 351.444 190.074 351.639L189.806 352.233C189.707 352.438 189.618 352.633 189.528 352.837C189.439 353.042 189.34 353.227 189.251 353.432C189.161 353.636 189.062 353.821 188.973 354.026L188.705 354.62C188.606 354.815 188.516 355.02 188.427 355.215C188.338 355.41 188.238 355.614 188.149 355.809L187.881 356.413C187.782 356.608 187.693 356.803 187.603 357.008C187.514 357.212 187.415 357.407 187.326 357.602L187.058 358.196C186.958 358.401 186.869 358.596 186.78 358.801C186.69 359.005 186.591 359.19 186.502 359.395L186.234 359.989C186.135 360.184 186.045 360.389 185.956 360.584C185.867 360.779 185.768 360.983 185.678 361.188C183.976 364.748 183.101 368.636 183.118 372.569C183.118 388.257 196.911 401.08 213.968 401.08C230.658 401.08 245.175 388.257 245.175 372.569C245.172 369.578 244.638 366.61 243.597 363.799C243.528 363.517 243.458 363.312 243.379 363.107Z" fill="#263238"/>
<path d="M219.773 147.287C168.601 147.287 133.763 176.86 133.763 219.987V223.885C133.772 224.529 133.95 225.16 134.281 225.716C134.611 226.273 135.082 226.736 135.648 227.061C135.862 227.264 136.095 227.446 136.343 227.607C136.558 227.812 136.794 227.995 137.047 228.153C137.262 228.358 137.498 228.541 137.752 228.698C137.965 228.906 138.201 229.089 138.456 229.244C138.668 229.449 138.9 229.632 139.151 229.79C139.366 229.998 139.602 230.184 139.855 230.345C140.073 230.548 140.309 230.73 140.56 230.891C140.775 231.095 141.011 231.278 141.264 231.436C141.476 231.641 141.709 231.824 141.959 231.982C142.192 232.203 142.448 232.399 142.723 232.567C142.925 232.748 143.141 232.914 143.368 233.064C143.585 233.266 143.821 233.449 144.072 233.609C144.287 233.812 144.519 233.994 144.767 234.155C144.985 234.358 145.22 234.54 145.472 234.701C145.687 234.905 145.923 235.088 146.176 235.246C146.388 235.451 146.621 235.634 146.871 235.792C147.086 235.997 147.322 236.18 147.575 236.338C147.787 236.542 148.02 236.725 148.27 236.883C148.487 237.086 148.723 237.268 148.974 237.429C149.186 237.634 149.419 237.816 149.669 237.975C150.815 238.965 152.311 239.476 153.836 239.397L185.748 240.567C189.032 240.567 190.818 239.105 190.818 235.88V232.664C190.818 219.773 201.555 210.701 218.602 210.701C234.111 210.701 244.55 218.896 244.55 231.495C244.55 232.931 244.411 234.363 244.133 235.773C228.118 256.391 186.433 265.482 186.433 305.501V315.128C186.433 319.026 188.606 321.179 192.604 321.179H231.025C234.994 321.179 237.197 319.045 237.197 315.128V308.707C237.197 276.279 302.161 275.918 302.161 216.762C302.161 175.077 269.853 147.287 219.773 147.287Z" fill="#263238"/>
<path d="M186.384 315.147V305.52C186.384 255.982 250.256 253.877 250.256 218.564C250.256 203.237 237.555 193.23 218.682 193.23C197.993 193.23 184.945 204.28 184.945 219.958V223.855C184.945 227.753 182.762 229.565 178.773 229.565L139.936 228.133C136.314 228.133 133.774 226.35 133.774 223.855V219.958C133.774 176.831 168.612 147.258 219.784 147.258C269.864 147.258 302.142 175.048 302.142 216.752C302.142 275.908 237.178 276.269 237.178 308.697V315.118C237.178 319.016 234.995 321.169 231.006 321.169H192.556C188.557 321.198 186.384 319.064 186.384 315.147ZM183.119 372.569C183.119 356.891 197.269 344.058 214.326 344.058C230.659 344.058 245.176 356.891 245.176 372.569C245.176 388.247 230.629 401.031 213.969 401.031C196.892 401.031 183.119 388.208 183.119 372.569Z" fill="#92E3A9" stroke="#92E3A9" stroke-miterlimit="10"/>
<path d="M212.381 432.982C242.308 432.982 266.569 427.655 266.569 421.085C266.569 414.514 242.308 409.187 212.381 409.187C182.453 409.187 158.193 414.514 158.193 421.085C158.193 427.655 182.453 432.982 212.381 432.982Z" fill="#263238"/>
<path d="M170.963 151.233L168.889 155.676C168.889 155.676 156.843 156.953 156.843 157.839C156.843 158.726 156.972 164.836 157.627 165.089C158.125 165.279 158.677 165.279 159.175 165.089L176.917 160.636L178.604 152.753L170.963 151.233Z" fill="white" stroke="#263238" stroke-linecap="round" stroke-linejoin="round"/>
<path d="M167.589 159.174C165.386 160.947 163.01 162.5 160.495 163.812C157.627 165.079 157.518 166.999 158.431 166.999C159.343 166.999 167.44 163.666 167.44 163.666C167.44 163.666 174.793 161.776 175.855 161.201C176.917 160.626 177.036 157.43 177.036 157.43" fill="white"/>
<path d="M167.589 159.174C165.386 160.947 163.01 162.5 160.495 163.812C157.627 165.079 157.518 166.999 158.431 166.999C159.343 166.999 167.44 163.666 167.44 163.666C167.44 163.666 174.793 161.776 175.855 161.201C176.917 160.626 177.036 157.43 177.036 157.43" stroke="#263238" stroke-linecap="round" stroke-linejoin="round"/>
<path d="M181.56 65.8555L174.158 121.572L169.008 151.739L180.439 154.39L188.963 118.707L193.001 96.2471L181.56 65.8555Z" fill="#7D7D7D" stroke="#263238" stroke-linecap="round" stroke-linejoin="round"/>
<path d="M241.295 25.5151L236.78 24.8135L227.532 21.3739L227.195 32.1606L241.533 33.4565L241.295 25.5151Z" fill="white" stroke="#263238" stroke-linecap="round" stroke-linejoin="round"/>
<path d="M188.516 223.095C185.151 226.948 182.008 230.982 179.1 235.178C175.279 240.908 176.629 247.066 181.342 248.615C186.055 250.164 192.098 245.965 193.676 242.661C195.254 239.358 194.797 237.604 197.258 234.301C199.719 230.998 201.743 227.695 200.85 223.29C199.957 218.886 190.937 220.016 188.516 223.095Z" fill="#7D7D7D" stroke="#263238" stroke-linecap="round" stroke-linejoin="round"/>
<path d="M193.22 243.49C192.902 242.827 192.535 242.126 192.099 241.375C188.497 235.149 182.176 235.646 178.207 236.805C175.597 242.038 177.085 247.241 181.362 248.644C185.639 250.047 191.156 246.618 193.22 243.49Z" fill="white" stroke="#263238" stroke-linecap="round" stroke-linejoin="round"/>
<path d="M192.098 241.375C190.759 243.323 188.963 248.644 182.007 246.441C180.067 245.952 178.332 244.879 177.045 243.372C177.196 244.56 177.681 245.684 178.448 246.615C179.214 247.547 180.23 248.249 181.382 248.644C186.085 250.183 192.138 245.993 193.716 242.69C195.293 239.387 194.837 237.633 197.298 234.33C199.759 231.026 201.783 227.723 200.89 223.319C200.89 228.6 198.905 229.477 196.405 232.342C193.904 235.207 193.448 239.387 192.098 241.375Z" fill="white" stroke="#263238" stroke-linecap="round" stroke-linejoin="round"/>
<path d="M254.691 223.095C258.056 226.948 261.2 230.982 264.108 235.178C267.928 240.908 266.578 247.066 261.865 248.615C257.152 250.164 251.109 245.965 249.531 242.661C247.953 239.358 248.41 237.604 245.949 234.301C243.488 230.998 241.464 227.695 242.357 223.29C243.25 218.886 252.23 220.016 254.691 223.095Z" fill="#7D7D7D" stroke="#263238" stroke-linecap="round" stroke-linejoin="round"/>
<path d="M249.998 243.49C250.305 242.827 250.672 242.126 251.109 241.375C254.711 235.149 261.032 235.646 265.001 236.805C267.61 242.038 266.122 247.241 261.845 248.644C257.569 250.047 252.052 246.618 249.998 243.49Z" fill="white" stroke="#263238" stroke-linecap="round" stroke-linejoin="round"/>
<path d="M251.109 241.375C252.448 243.323 254.244 248.644 261.2 246.441C263.14 245.952 264.875 244.879 266.162 243.372C266.011 244.56 265.525 245.684 264.759 246.615C263.993 247.547 262.977 248.249 261.825 248.644C257.122 250.183 251.069 245.993 249.491 242.69C247.914 239.387 248.37 237.633 245.909 234.33C243.448 231.026 241.424 227.723 242.317 223.319C242.317 228.6 244.302 229.477 246.802 232.342C249.303 235.207 249.759 239.387 251.109 241.375Z" fill="white" stroke="#263238" stroke-linecap="round" stroke-linejoin="round"/>
<path d="M265.209 147.121C265.209 143.155 258.263 138.751 258.263 138.751C247.795 128.295 228.902 129.679 221.926 130.614C214.98 129.64 196.067 128.295 185.599 138.751C185.599 138.751 178.653 143.155 178.653 147.121C178.653 151.087 187.405 222.657 187.405 222.657C187.405 222.657 187.177 226.398 193.458 226.837C199.739 227.275 202.388 223.758 202.388 223.758L204.859 163.198C204.859 163.198 214.95 156.144 216.766 155.929C217.421 155.842 218.275 155.705 219.227 155.588V155.705C221.004 155.341 222.838 155.341 224.615 155.705V155.588C225.607 155.705 226.411 155.842 227.076 155.929C228.872 156.144 238.983 163.198 238.983 163.198L241.454 223.758C241.454 223.758 244.143 227.275 250.384 226.837C256.626 226.398 256.437 222.657 256.437 222.657C256.437 222.657 265.209 151.087 265.209 147.121Z" fill="#263238" stroke="#263238" stroke-linecap="round" stroke-linejoin="round"/>
<path d="M238.973 163.198C238.973 163.198 237.624 148.66 244.133 143.155" stroke="#707070" stroke-linecap="round" stroke-linejoin="round"/>
<path d="M204.889 163.198C204.889 163.198 205.563 151.087 204.214 146.682C202.864 142.278 200.622 140.514 200.622 140.514" stroke="#707070" stroke-linecap="round" stroke-linejoin="round"/>
<path d="M213.184 134.346C213.184 134.346 220.358 142.492 221.708 149.323" stroke="#707070" stroke-linecap="round" stroke-linejoin="round"/>
<path d="M228.882 134.814C228.882 134.814 224.843 139.218 224.397 142.522" stroke="#707070" stroke-linecap="round" stroke-linejoin="round"/>
<path d="M218.791 49.1252C218.791 49.1252 212.291 48.2385 210.049 50.4406C207.806 52.6428 200.176 60.7596 200.176 60.7596L204.214 130.79C204.214 130.79 213.412 134.317 221.261 134.317C229.11 134.317 238.08 131.453 240.115 129.913C242.149 128.373 240.343 53.2761 240.343 53.2761C240.343 53.2761 223.682 48.4626 218.791 49.1252Z" fill="#92E3A9" stroke="#263238" stroke-linecap="round" stroke-linejoin="round"/>
<path d="M230.678 50.665C234.092 50.1559 237.535 49.8598 240.988 49.7783C245.473 49.7783 249.918 50.0024 249.918 50.0024L261.131 39.4301L238.567 34.3632L240.363 24.2392C240.363 24.2392 256.953 23.1381 265.249 24.6777C273.544 26.2172 286.553 30.183 287.228 30.183C287.902 30.183 288.795 32.6093 288.121 34.3632C287.446 36.1172 266.35 59.0351 260.049 64.979C255.927 68.9456 252.035 73.1356 248.39 77.5293L245.512 126.639C245.512 126.639 252.915 130.605 254.264 131.921C255.614 133.236 257.182 138.527 257.182 138.527C257.182 138.527 243.498 133.022 239.906 132.583C236.314 132.145 234.081 131.921 233.407 130.634C232.732 129.348 227.126 70.5136 227.126 70.5136L227.354 51.7953C227.354 51.7953 227.314 50.665 230.678 50.665Z" fill="#7D7D7D" stroke="#263238" stroke-linecap="round" stroke-linejoin="round"/>
<path d="M244.133 80.8325L232.018 82.3721L233.139 86.7764L239.202 88.3159L245.026 85.6753L244.133 80.8325Z" stroke="#263238" stroke-linecap="round" stroke-linejoin="round"/>
<path d="M251.079 54.4065L248.39 77.5291L255.346 57.9338" stroke="#263238" stroke-linecap="round" stroke-linejoin="round"/>
<path d="M261.171 39.4297C261.171 39.4297 266.777 40.5308 275.3 37.2275" stroke="#263238" stroke-linecap="round" stroke-linejoin="round"/>
<path d="M267.005 40.9692C270.688 41.0699 274.371 40.7759 277.99 40.0923" stroke="#263238" stroke-linecap="round" stroke-linejoin="round"/>
<path d="M211.17 48.9011L212.291 64.9788C213.313 66.299 214.637 67.365 216.155 68.0911C217.674 68.8171 219.344 69.1829 221.033 69.159C226.639 68.9446 227.314 64.9788 227.314 64.9788V51.7659L211.17 48.9011Z" fill="white" stroke="#263238" stroke-linecap="round" stroke-linejoin="round"/>
<path d="M227.532 57.271L227.086 70.5034L231.799 63.2344C231.799 63.2344 236.959 69.6167 238.299 69.4024C239.638 69.188 237.405 66.5376 236.959 64.1211C236.512 61.7046 232.692 53.1006 232.246 50.6841C231.799 48.2676 227.532 47.8193 227.284 48.9204C227.16 49.8714 227.16 50.8341 227.284 51.7852L227.532 57.271Z" fill="#7D7D7D" stroke="#263238" stroke-linecap="round" stroke-linejoin="round"/>
<path d="M212.063 69.1589C212.063 69.1589 212.956 130.819 210.713 131.521C208.471 132.222 199.501 132.407 193.845 135.048C188.189 137.689 185.549 138.79 185.549 138.79C185.549 138.79 188.238 132.407 191.384 129.543C193.475 127.697 195.811 126.14 198.33 124.914L192.505 95.4093C192.505 95.4093 181.739 67.4342 181.511 65.8946C181.283 64.355 201.922 52.9058 206.179 50.918C210.436 48.9302 211.567 50.7037 211.567 50.7037L212.063 69.1589Z" fill="#7D7D7D" stroke="#263238" stroke-linecap="round" stroke-linejoin="round"/>
<path d="M206.457 47.7998C206.457 47.7998 201.078 64.5401 200.622 66.7422C200.166 68.9444 200.622 68.9444 202.2 67.3951C203.777 65.8458 207.806 62.1138 207.806 62.1138L212.063 69.1587L211.835 56.1699V48.6768C211.835 48.6768 211.616 45.5976 206.457 47.7998Z" fill="#7D7D7D" stroke="#263238" stroke-linecap="round" stroke-linejoin="round"/>
<path d="M195.919 83.9208H209.146L208.927 89.2021L203.093 91.1801L195.69 89.2021L195.919 83.9208Z" stroke="#263238" stroke-linecap="round" stroke-linejoin="round"/>
<path d="M232.246 26.0021C232.246 26.0021 235.381 39.4294 236.056 41.5925C236.731 43.7557 232.474 52.3889 231.095 54.367C230.57 55.2249 229.848 55.9502 228.986 56.4848C228.125 57.0195 227.148 57.3487 226.133 57.4461C224.566 57.4461 216.042 54.5911 214.018 53.2659C211.993 51.9407 209.989 50.4012 209.989 50.4012C209.035 50.8283 207.975 50.9728 206.939 50.817C205.902 50.6612 204.935 50.212 204.154 49.5242C201.465 47.0979 197.873 44.2332 198.766 42.2551C199.201 41.2845 199.93 40.4686 200.853 39.9178C201.776 39.3671 202.849 39.1081 203.926 39.176C206.397 39.176 205.504 38.9519 205.504 38.9519C205.504 38.9519 201.019 32.5696 201.019 27.5027C201.019 22.4358 210.654 18.733 216.26 18.733C220.137 18.8917 223.945 19.7885 227.473 21.3737L232.246 26.0021Z" fill="white" stroke="#263238" stroke-linecap="round" stroke-linejoin="round"/>
<path d="M224.397 31.0599L228.435 38.5531L224.397 41.1937L222.601 38.9916" stroke="#263238" stroke-linecap="round" stroke-linejoin="round"/>
<path d="M231.799 37.8904C231.799 37.8904 232.017 39.6541 229.328 42.5188" stroke="#263238" stroke-linecap="round" stroke-linejoin="round"/>
<path d="M220.14 33.817C220.14 34.8499 219.684 35.6879 219.148 35.6879C218.612 35.6879 218.156 34.8499 218.156 33.817C218.156 32.7842 218.612 31.9462 219.148 31.9462C219.684 31.9462 220.14 32.7842 220.14 33.817Z" fill="#263238"/>
<path d="M227.195 32.1607C227.754 32.1607 228.207 31.3231 228.207 30.2898C228.207 29.2566 227.754 28.4189 227.195 28.4189C226.636 28.4189 226.183 29.2566 226.183 30.2898C226.183 31.3231 226.636 32.1607 227.195 32.1607Z" fill="#263238"/>
<path d="M208.024 14.5435C208.024 14.5435 193.914 19.6104 193.448 26.0025C192.982 32.3945 206.01 41.1934 206.685 42.2945C207.36 43.3956 209.374 40.9693 209.374 40.9693C208.925 40.3776 208.612 39.6977 208.457 38.9762C208.301 38.2547 208.306 37.5086 208.471 36.7891C209.146 34.587 212.063 31.9171 212.063 30.8452C212.063 29.7734 208.699 31.7222 208.699 28.419C208.699 25.1157 216.995 23.1377 221.926 23.3521C226.858 23.5664 231.124 31.7222 234.716 27.7564C238.309 23.7906 233.139 22.6992 233.139 22.6992C233.139 22.6992 240.085 21.8125 240.085 18.2949C240.085 14.7773 236.493 12.3413 234.925 12.3413C233.357 12.3413 229.1 14.9917 229.1 12.1269C229.1 9.2622 233.357 7.93701 229.319 3.35731C225.28 -1.22239 220.13 3.35731 220.13 5.12098C220.13 6.88465 218.781 10.1781 217.888 10.1781C216.995 10.1781 214.296 6.22206 211.16 8.42421C210.217 9.16032 209.448 10.0888 208.907 11.1453C208.366 12.2019 208.065 13.3613 208.024 14.5435V14.5435Z" fill="#263238" stroke="#263238" stroke-linecap="round" stroke-linejoin="round"/>
<path d="M213.859 31.5079L221.033 28.8575" stroke="#263238" stroke-linecap="round" stroke-linejoin="round"/>
<path d="M222.154 25.7783C222.017 25.0871 222.129 24.3704 222.472 23.7516" stroke="#263238" stroke-linecap="round" stroke-linejoin="round"/>
<path d="M222.472 23.7324C222.978 22.758 224.119 21.501 226.639 20.4779" stroke="white" stroke-linecap="round" stroke-linejoin="round"/>
</g>
</svg>
