<svg width="240" height="79" viewBox="0 0 240 79" fill="none" xmlns="http://www.w3.org/2000/svg">
<g clip-path="url(#clip0_10_207)">
<path d="M29.2325 19.6866C36.491 19.6866 42.9557 22.0041 48.4788 26.7956C48.5687 26.8734 48.6587 26.9512 48.7513 27.0314C50.0724 28.1829 51.2328 29.4028 52.2917 30.8058C52.5034 31.0762 52.5034 31.0762 52.7194 31.352C54.8176 34.1021 56.4166 37.324 57.3757 40.6491C57.4111 40.7714 57.4466 40.8937 57.4831 41.0196C59.2564 47.285 59.0324 54.7942 56.1047 60.7002C56.0302 60.8525 55.9557 61.0048 55.879 61.1616C54.8416 63.2688 53.8115 65.2805 52.2917 67.0802C52.1242 67.2867 51.9568 67.4935 51.7896 67.7003C47.3148 73.1632 40.8609 76.9955 33.8625 78.0741C32.3251 78.2156 30.7764 78.1994 29.2325 78.1994C29.2325 71.763 29.2325 65.3266 29.2325 58.6951C30.8503 58.3342 30.8503 58.3342 32.5008 57.966C34.759 57.0286 36.3399 55.7032 37.5847 53.5912C37.7364 53.3713 37.7364 53.3713 37.8911 53.1469C38.9268 51.1169 39.0617 48.4009 38.4698 46.1973C38.3208 45.7883 38.3208 45.7883 38.1294 45.3885C38.0564 45.227 37.9834 45.0656 37.9081 44.8993C36.7837 42.6384 35.0751 40.8708 32.6802 40.0104C31.5324 39.6273 30.4385 39.3638 29.2325 39.1908C29.2325 32.7544 29.2325 26.318 29.2325 19.6866Z" fill="#263238"/>
<path d="M29.1943 58.6957C21.9359 58.6957 15.4711 56.3782 9.94808 51.5867C9.85814 51.5089 9.76821 51.4311 9.67555 51.3509C8.35448 50.1994 7.19411 48.9795 6.13514 47.5764C5.92344 47.3061 5.92344 47.3061 5.70746 47.0303C3.60926 44.2802 2.01031 41.0583 1.05122 37.7332C1.01576 37.6109 0.980305 37.4886 0.943771 37.3626C-0.829519 31.0972 -0.605515 23.5881 2.3222 17.682C2.39669 17.5298 2.47118 17.3775 2.54792 17.2206C3.58524 15.1135 4.61539 13.1018 6.13514 11.3021C6.30269 11.0955 6.47007 10.8888 6.63729 10.6819C11.1121 5.21905 17.566 1.38676 24.5643 0.308162C26.1018 0.166675 27.6504 0.182842 29.1943 0.182842C29.1943 6.61926 29.1943 13.0557 29.1943 19.6871C27.5766 20.0481 27.5766 20.0481 25.9261 20.4163C23.6678 21.3536 22.087 22.679 20.8422 24.7911C20.6905 25.011 20.6905 25.011 20.5358 25.2354C19.5001 27.2654 19.3652 29.9814 19.957 32.1849C20.1061 32.594 20.1061 32.594 20.2975 32.9938C20.3705 33.1552 20.4435 33.3166 20.5188 33.483C21.6432 35.7439 23.3518 37.5115 25.7467 38.3719C26.8944 38.755 27.9884 39.0185 29.1943 39.1914C29.1943 45.6278 29.1943 52.0643 29.1943 58.6957Z" fill="#263238"/>
</g>
<path d="M82.5615 46.3142C81.4924 46.3142 80.4644 46.1429 79.4776 45.8002C78.5045 45.4439 77.7506 44.9916 77.2161 44.4433L77.8123 43.2715C78.3194 43.7649 78.9979 44.1829 79.8477 44.5256C80.7111 44.8545 81.6157 45.019 82.5615 45.019C83.4661 45.019 84.1993 44.9093 84.7613 44.69C85.3369 44.457 85.755 44.1486 86.0154 43.7649C86.2895 43.3811 86.4266 42.9562 86.4266 42.4902C86.4266 41.9283 86.2621 41.476 85.9332 41.1333C85.6179 40.7907 85.1999 40.5234 84.6791 40.3315C84.1582 40.1259 83.5826 39.9477 82.9521 39.797C82.3216 39.6462 81.6911 39.4886 81.0606 39.3241C80.4302 39.1459 79.8477 38.9129 79.3131 38.6251C78.7923 38.3373 78.3674 37.9603 78.0385 37.4943C77.7232 37.0146 77.5656 36.391 77.5656 35.6235C77.5656 34.9107 77.7506 34.2597 78.1207 33.6703C78.5045 33.0673 79.087 32.5876 79.8682 32.2312C80.6495 31.8611 81.65 31.6761 82.8699 31.6761C83.6785 31.6761 84.4803 31.7926 85.2753 32.0256C86.0702 32.2449 86.7555 32.5533 87.3312 32.9508L86.8172 34.1638C86.2004 33.7526 85.5425 33.451 84.8435 33.2592C84.1582 33.0673 83.4935 32.9713 82.8493 32.9713C81.9858 32.9713 81.2731 33.0878 80.7111 33.3208C80.1492 33.5538 79.7312 33.8691 79.457 34.2666C79.1966 34.6503 79.0664 35.0889 79.0664 35.5823C79.0664 36.1443 79.224 36.5966 79.5393 36.9392C79.8682 37.2819 80.2931 37.5492 80.8139 37.7411C81.3485 37.9329 81.931 38.1043 82.5615 38.255C83.1919 38.4058 83.8156 38.5703 84.4323 38.7484C85.0628 38.9266 85.6385 39.1596 86.1593 39.4475C86.6939 39.7216 87.1187 40.0916 87.434 40.5577C87.7629 41.0237 87.9274 41.6336 87.9274 42.3874C87.9274 43.0864 87.7355 43.7375 87.3517 44.3405C86.968 44.9299 86.3786 45.4096 85.5837 45.7797C84.8024 46.136 83.795 46.3142 82.5615 46.3142ZM97.6181 46.3142C95.7815 46.3142 94.3355 45.7865 93.2802 44.7312C92.2248 43.6758 91.6971 42.1133 91.6971 40.0437V31.7995H93.2185V39.982C93.2185 41.6816 93.6023 42.9357 94.3698 43.7443C95.1373 44.553 96.2201 44.9573 97.6181 44.9573C99.0299 44.9573 100.12 44.553 100.887 43.7443C101.655 42.9357 102.038 41.6816 102.038 39.982V31.7995H103.519V40.0437C103.519 42.1133 102.991 43.6758 101.936 44.7312C100.894 45.7865 99.4548 46.3142 97.6181 46.3142ZM108.681 46.1909V31.7995H114.068C115.288 31.7995 116.336 31.9982 117.213 32.3957C118.091 32.7794 118.762 33.3414 119.228 34.0815C119.708 34.8079 119.948 35.692 119.948 36.7337C119.948 37.7479 119.708 38.6251 119.228 39.3652C118.762 40.0916 118.091 40.6536 117.213 41.0511C116.336 41.4485 115.288 41.6473 114.068 41.6473H109.524L110.203 40.9277V46.1909H108.681ZM110.203 41.0511L109.524 40.3109H114.027C115.466 40.3109 116.556 40.0026 117.296 39.3858C118.049 38.7553 118.426 37.8713 118.426 36.7337C118.426 35.5823 118.049 34.6914 117.296 34.061C116.556 33.4305 115.466 33.1152 114.027 33.1152H109.524L110.203 32.3957V41.0511ZM123.816 46.1909V31.7995H129.202C130.422 31.7995 131.47 31.9982 132.348 32.3957C133.225 32.7794 133.896 33.3414 134.362 34.0815C134.842 34.8079 135.082 35.692 135.082 36.7337C135.082 37.7479 134.842 38.6251 134.362 39.3652C133.896 40.0916 133.225 40.6536 132.348 41.0511C131.47 41.4485 130.422 41.6473 129.202 41.6473H124.659L125.337 40.9277V46.1909H123.816ZM125.337 41.0511L124.659 40.3109H129.161C130.6 40.3109 131.69 40.0026 132.43 39.3858C133.184 38.7553 133.561 37.8713 133.561 36.7337C133.561 35.5823 133.184 34.6914 132.43 34.061C131.69 33.4305 130.6 33.1152 129.161 33.1152H124.659L125.337 32.3957V41.0511ZM138.95 46.1909V31.7995H140.471V44.8751H148.53V46.1909H138.95ZM151.635 46.1909V31.7995H153.156V46.1909H151.635ZM164.667 46.3142C163.584 46.3142 162.583 46.136 161.665 45.7797C160.747 45.4096 159.952 44.8956 159.28 44.2377C158.609 43.5798 158.081 42.8055 157.697 41.9146C157.327 41.0237 157.142 40.0505 157.142 38.9952C157.142 37.9398 157.327 36.9667 157.697 36.0758C158.081 35.1849 158.609 34.4105 159.28 33.7526C159.966 33.0947 160.767 32.5876 161.686 32.2312C162.604 31.8611 163.605 31.6761 164.687 31.6761C165.729 31.6761 166.709 31.8543 167.627 32.2106C168.546 32.5533 169.32 33.0741 169.95 33.7731L168.984 34.7394C168.395 34.1363 167.744 33.7046 167.031 33.4442C166.318 33.1701 165.551 33.033 164.728 33.033C163.865 33.033 163.063 33.1838 162.323 33.4853C161.583 33.7731 160.939 34.1912 160.39 34.7394C159.842 35.274 159.411 35.9044 159.095 36.6309C158.794 37.3436 158.643 38.1317 158.643 38.9952C158.643 39.8586 158.794 40.6536 159.095 41.38C159.411 42.0927 159.842 42.7232 160.39 43.2715C160.939 43.806 161.583 44.224 162.323 44.5256C163.063 44.8134 163.865 44.9573 164.728 44.9573C165.551 44.9573 166.318 44.8202 167.031 44.5461C167.744 44.272 168.395 43.8334 168.984 43.2303L169.95 44.1966C169.32 44.8956 168.546 45.4233 167.627 45.7797C166.709 46.136 165.722 46.3142 164.667 46.3142ZM171.108 46.1909L177.687 31.7995H179.188L185.767 46.1909H184.163L178.119 32.6835H178.735L172.691 46.1909H171.108ZM173.698 42.3463L174.151 41.1127H182.518L182.971 42.3463H173.698ZM190.799 46.1909V33.1152H185.741V31.7995H197.378V33.1152H192.32V46.1909H190.799ZM200.386 46.1909V31.7995H201.908V46.1909H200.386ZM213.46 46.3142C212.377 46.3142 211.369 46.136 210.437 45.7797C209.519 45.4096 208.717 44.8956 208.032 44.2377C207.36 43.5661 206.833 42.7917 206.449 41.9146C206.079 41.0237 205.894 40.0505 205.894 38.9952C205.894 37.9398 206.079 36.9735 206.449 36.0963C206.833 35.2054 207.36 34.431 208.032 33.7731C208.717 33.1015 209.519 32.5876 210.437 32.2312C211.356 31.8611 212.363 31.6761 213.46 31.6761C214.542 31.6761 215.543 31.8611 216.461 32.2312C217.38 32.5876 218.174 33.0947 218.846 33.7526C219.531 34.4105 220.059 35.1849 220.429 36.0758C220.813 36.9667 221.005 37.9398 221.005 38.9952C221.005 40.0505 220.813 41.0237 220.429 41.9146C220.059 42.8055 219.531 43.5798 218.846 44.2377C218.174 44.8956 217.38 45.4096 216.461 45.7797C215.543 46.136 214.542 46.3142 213.46 46.3142ZM213.46 44.9573C214.323 44.9573 215.118 44.8134 215.844 44.5256C216.585 44.224 217.222 43.806 217.756 43.2715C218.305 42.7232 218.73 42.0927 219.031 41.38C219.333 40.6536 219.483 39.8586 219.483 38.9952C219.483 38.1317 219.333 37.3436 219.031 36.6309C218.73 35.9044 218.305 35.274 217.756 34.7394C217.222 34.1912 216.585 33.7731 215.844 33.4853C215.118 33.1838 214.323 33.033 213.46 33.033C212.596 33.033 211.794 33.1838 211.054 33.4853C210.314 33.7731 209.67 34.1912 209.122 34.7394C208.587 35.274 208.162 35.9044 207.847 36.6309C207.545 37.3436 207.395 38.1317 207.395 38.9952C207.395 39.8449 207.545 40.633 207.847 41.3595C208.162 42.0859 208.587 42.7232 209.122 43.2715C209.67 43.806 210.314 44.224 211.054 44.5256C211.794 44.8134 212.596 44.9573 213.46 44.9573ZM224.993 46.1909V31.7995H226.247L236.177 44.2994H235.519V31.7995H237.02V46.1909H235.766L225.857 33.6909H226.514V46.1909H224.993Z" fill="#202E2D"/>
<defs>
<clipPath id="clip0_10_207">
<rect width="58.4651" height="78.3817" fill="white"/>
</clipPath>
</defs>
</svg>
