<svg width="240" height="79" viewBox="0 0 240 79" fill="none" xmlns="http://www.w3.org/2000/svg">
<g clip-path="url(#clip0_12_103)">
<path d="M29.2325 19.6865C36.491 19.6865 42.9557 22.004 48.4788 26.7956C48.5687 26.8734 48.6587 26.9512 48.7513 27.0313C50.0724 28.1829 51.2328 29.4027 52.2917 30.8058C52.5034 31.0761 52.5034 31.0761 52.7194 31.3519C54.8176 34.102 56.4166 37.3239 57.3757 40.6491C57.4111 40.7714 57.4466 40.8936 57.4831 41.0196C59.2564 47.285 59.0324 54.7941 56.1047 60.7002C56.0302 60.8525 55.9557 61.0047 55.879 61.1616C54.8416 63.2688 53.8115 65.2805 52.2917 67.0801C52.1242 67.2867 51.9568 67.4935 51.7896 67.7003C47.3148 73.1632 40.8609 76.9955 33.8625 78.0741C32.3251 78.2156 30.7764 78.1994 29.2325 78.1994C29.2325 71.763 29.2325 65.3266 29.2325 58.6951C30.8503 58.3342 30.8503 58.3342 32.5008 57.966C34.759 57.0286 36.3399 55.7032 37.5847 53.5912C37.7364 53.3712 37.7364 53.3712 37.8911 53.1469C38.9268 51.1169 39.0617 48.4008 38.4698 46.1973C38.3208 45.7883 38.3208 45.7883 38.1294 45.3884C38.0564 45.227 37.9834 45.0656 37.9081 44.8993C36.7837 42.6384 35.0751 40.8707 32.6802 40.0104C31.5324 39.6272 30.4385 39.3638 29.2325 39.1908C29.2325 32.7544 29.2325 26.318 29.2325 19.6865Z" fill="#82FFC9"/>
<path d="M29.1943 58.6957C21.9359 58.6957 15.4711 56.3782 9.94808 51.5866C9.85814 51.5088 9.76821 51.431 9.67555 51.3509C8.35448 50.1993 7.19411 48.9795 6.13514 47.5764C5.92344 47.3061 5.92344 47.3061 5.70746 47.0303C3.60926 44.2802 2.01031 41.0583 1.05122 37.7331C1.01576 37.6108 0.980304 37.4886 0.94377 37.3626C-0.829518 31.0972 -0.605514 23.5881 2.3222 17.682C2.39669 17.5297 2.47118 17.3775 2.54792 17.2206C3.58524 15.1134 4.61539 13.1017 6.13514 11.3021C6.30269 11.0955 6.47007 10.8887 6.63729 10.6819C11.1121 5.21901 17.566 1.38673 24.5643 0.308131C26.1018 0.166644 27.6504 0.182812 29.1943 0.182812C29.1943 6.61923 29.1943 13.0556 29.1943 19.6871C27.5766 20.048 27.5766 20.048 25.9261 20.4162C23.6678 21.3536 22.087 22.679 20.8422 24.791C20.6905 25.011 20.6905 25.011 20.5358 25.2353C19.5001 27.2653 19.3652 29.9814 19.957 32.1849C20.1061 32.594 20.1061 32.594 20.2975 32.9938C20.3705 33.1552 20.4435 33.3166 20.5188 33.4829C21.6432 35.7438 23.3518 37.5115 25.7467 38.3718C26.8944 38.755 27.9884 39.0184 29.1943 39.1914C29.1943 45.6278 29.1943 52.0642 29.1943 58.6957Z" fill="#82FFC9"/>
</g>
<path d="M82.5615 46.3143C81.4924 46.3143 80.4644 46.1429 79.4776 45.8003C78.5045 45.4439 77.7506 44.9916 77.2161 44.4434L77.8123 43.2715C78.3194 43.7649 78.9979 44.183 79.8477 44.5256C80.7111 44.8546 81.6157 45.019 82.5615 45.019C83.4661 45.019 84.1993 44.9094 84.7613 44.6901C85.3369 44.4571 85.755 44.1487 86.0154 43.7649C86.2895 43.3812 86.4266 42.9563 86.4266 42.4903C86.4266 41.9283 86.2621 41.476 85.9332 41.1334C85.6179 40.7907 85.1999 40.5234 84.6791 40.3316C84.1582 40.126 83.5826 39.9478 82.9521 39.797C82.3216 39.6463 81.6911 39.4886 81.0606 39.3242C80.4302 39.146 79.8477 38.913 79.3131 38.6252C78.7923 38.3373 78.3674 37.9604 78.0385 37.4944C77.7232 37.0147 77.5656 36.3911 77.5656 35.6235C77.5656 34.9108 77.7506 34.2598 78.1207 33.6704C78.5045 33.0673 79.087 32.5876 79.8682 32.2313C80.6495 31.8612 81.65 31.6762 82.8699 31.6762C83.6785 31.6762 84.4803 31.7927 85.2753 32.0257C86.0702 32.245 86.7555 32.5534 87.3312 32.9508L86.8172 34.1638C86.2004 33.7526 85.5425 33.4511 84.8435 33.2592C84.1582 33.0673 83.4935 32.9714 82.8493 32.9714C81.9858 32.9714 81.2731 33.0879 80.7111 33.3209C80.1492 33.5539 79.7312 33.8691 79.457 34.2666C79.1966 34.6504 79.0664 35.089 79.0664 35.5824C79.0664 36.1444 79.224 36.5967 79.5393 36.9393C79.8682 37.282 80.2931 37.5492 80.8139 37.7411C81.3485 37.933 81.931 38.1043 82.5615 38.2551C83.1919 38.4059 83.8156 38.5703 84.4323 38.7485C85.0628 38.9267 85.6385 39.1597 86.1593 39.4475C86.6939 39.7216 87.1187 40.0917 87.434 40.5577C87.7629 41.0237 87.9274 41.6336 87.9274 42.3875C87.9274 43.0865 87.7355 43.7375 87.3517 44.3406C86.968 44.93 86.3786 45.4097 85.5837 45.7797C84.8024 46.1361 83.795 46.3143 82.5615 46.3143ZM97.6181 46.3143C95.7815 46.3143 94.3355 45.7866 93.2802 44.7312C92.2248 43.6758 91.6971 42.1134 91.6971 40.0437V31.7995H93.2185V39.9821C93.2185 41.6816 93.6023 42.9357 94.3698 43.7444C95.1373 44.553 96.2201 44.9574 97.6181 44.9574C99.0299 44.9574 100.12 44.553 100.887 43.7444C101.655 42.9357 102.038 41.6816 102.038 39.9821V31.7995H103.519V40.0437C103.519 42.1134 102.991 43.6758 101.936 44.7312C100.894 45.7866 99.4548 46.3143 97.6181 46.3143ZM108.681 46.1909V31.7995H114.068C115.288 31.7995 116.336 31.9983 117.213 32.3957C118.091 32.7795 118.762 33.3415 119.228 34.0816C119.708 34.808 119.948 35.6921 119.948 36.7337C119.948 37.748 119.708 38.6252 119.228 39.3653C118.762 40.0917 118.091 40.6537 117.213 41.0511C116.336 41.4486 115.288 41.6473 114.068 41.6473H109.524L110.203 40.9278V46.1909H108.681ZM110.203 41.0511L109.524 40.311H114.027C115.466 40.311 116.556 40.0026 117.296 39.3858C118.049 38.7554 118.426 37.8713 118.426 36.7337C118.426 35.5824 118.049 34.6915 117.296 34.061C116.556 33.4305 115.466 33.1153 114.027 33.1153H109.524L110.203 32.3957V41.0511ZM123.816 46.1909V31.7995H129.202C130.422 31.7995 131.47 31.9983 132.348 32.3957C133.225 32.7795 133.896 33.3415 134.362 34.0816C134.842 34.808 135.082 35.6921 135.082 36.7337C135.082 37.748 134.842 38.6252 134.362 39.3653C133.896 40.0917 133.225 40.6537 132.348 41.0511C131.47 41.4486 130.422 41.6473 129.202 41.6473H124.659L125.337 40.9278V46.1909H123.816ZM125.337 41.0511L124.659 40.311H129.161C130.6 40.311 131.69 40.0026 132.43 39.3858C133.184 38.7554 133.561 37.8713 133.561 36.7337C133.561 35.5824 133.184 34.6915 132.43 34.061C131.69 33.4305 130.6 33.1153 129.161 33.1153H124.659L125.337 32.3957V41.0511ZM138.95 46.1909V31.7995H140.471V44.8751H148.53V46.1909H138.95ZM151.635 46.1909V31.7995H153.156V46.1909H151.635ZM164.667 46.3143C163.584 46.3143 162.583 46.1361 161.665 45.7797C160.747 45.4097 159.952 44.8957 159.28 44.2378C158.609 43.5799 158.081 42.8055 157.697 41.9146C157.327 41.0237 157.142 40.0506 157.142 38.9952C157.142 37.9398 157.327 36.9667 157.697 36.0758C158.081 35.1849 158.609 34.4105 159.28 33.7526C159.966 33.0947 160.767 32.5876 161.686 32.2313C162.604 31.8612 163.605 31.6762 164.687 31.6762C165.729 31.6762 166.709 31.8543 167.627 32.2107C168.546 32.5534 169.32 33.0742 169.95 33.7732L168.984 34.7395C168.395 34.1364 167.744 33.7047 167.031 33.4443C166.318 33.1701 165.551 33.0331 164.728 33.0331C163.865 33.0331 163.063 33.1838 162.323 33.4854C161.583 33.7732 160.939 34.1912 160.39 34.7395C159.842 35.274 159.411 35.9045 159.095 36.6309C158.794 37.3436 158.643 38.1317 158.643 38.9952C158.643 39.8587 158.794 40.6537 159.095 41.3801C159.411 42.0928 159.842 42.7233 160.39 43.2715C160.939 43.8061 161.583 44.2241 162.323 44.5256C163.063 44.8135 163.865 44.9574 164.728 44.9574C165.551 44.9574 166.318 44.8203 167.031 44.5462C167.744 44.2721 168.395 43.8335 168.984 43.2304L169.95 44.1967C169.32 44.8957 168.546 45.4234 167.627 45.7797C166.709 46.1361 165.722 46.3143 164.667 46.3143ZM171.108 46.1909L177.687 31.7995H179.188L185.767 46.1909H184.163L178.119 32.6836H178.735L172.691 46.1909H171.108ZM173.698 42.3464L174.151 41.1128H182.518L182.971 42.3464H173.698ZM190.799 46.1909V33.1153H185.741V31.7995H197.378V33.1153H192.32V46.1909H190.799ZM200.386 46.1909V31.7995H201.908V46.1909H200.386ZM213.46 46.3143C212.377 46.3143 211.369 46.1361 210.437 45.7797C209.519 45.4097 208.717 44.8957 208.032 44.2378C207.36 43.5662 206.833 42.7918 206.449 41.9146C206.079 41.0237 205.894 40.0506 205.894 38.9952C205.894 37.9398 206.079 36.9736 206.449 36.0964C206.833 35.2055 207.36 34.4311 208.032 33.7732C208.717 33.1016 209.519 32.5876 210.437 32.2313C211.356 31.8612 212.363 31.6762 213.46 31.6762C214.542 31.6762 215.543 31.8612 216.461 32.2313C217.38 32.5876 218.174 33.0947 218.846 33.7526C219.531 34.4105 220.059 35.1849 220.429 36.0758C220.813 36.9667 221.005 37.9398 221.005 38.9952C221.005 40.0506 220.813 41.0237 220.429 41.9146C220.059 42.8055 219.531 43.5799 218.846 44.2378C218.174 44.8957 217.38 45.4097 216.461 45.7797C215.543 46.1361 214.542 46.3143 213.46 46.3143ZM213.46 44.9574C214.323 44.9574 215.118 44.8135 215.844 44.5256C216.585 44.2241 217.222 43.8061 217.756 43.2715C218.305 42.7233 218.73 42.0928 219.031 41.3801C219.333 40.6537 219.483 39.8587 219.483 38.9952C219.483 38.1317 219.333 37.3436 219.031 36.6309C218.73 35.9045 218.305 35.274 217.756 34.7395C217.222 34.1912 216.585 33.7732 215.844 33.4854C215.118 33.1838 214.323 33.0331 213.46 33.0331C212.596 33.0331 211.794 33.1838 211.054 33.4854C210.314 33.7732 209.67 34.1912 209.122 34.7395C208.587 35.274 208.162 35.9045 207.847 36.6309C207.545 37.3436 207.395 38.1317 207.395 38.9952C207.395 39.845 207.545 40.6331 207.847 41.3595C208.162 42.0859 208.587 42.7233 209.122 43.2715C209.67 43.8061 210.314 44.2241 211.054 44.5256C211.794 44.8135 212.596 44.9574 213.46 44.9574ZM224.993 46.1909V31.7995H226.247L236.177 44.2995H235.519V31.7995H237.02V46.1909H235.766L225.857 33.691H226.514V46.1909H224.993Z" fill="white"/>
<defs>
<clipPath id="clip0_12_103">
<rect width="58.4651" height="78.3817" fill="white"/>
</clipPath>
</defs>
</svg>
