<svg width="29" height="30" viewBox="0 0 29 30" fill="none" xmlns="http://www.w3.org/2000/svg">
<path d="M14.5 3.10753C12.9132 3.10753 11.3419 3.42007 9.87593 4.02732C8.40991 4.63456 7.07785 5.52461 5.95581 6.64665C3.68975 8.91272 2.41669 11.9862 2.41669 15.1909C2.41669 18.3956 3.68975 21.469 5.95581 23.7351C7.07785 24.8571 8.40991 25.7472 9.87593 26.3544C11.3419 26.9617 12.9132 27.2742 14.5 27.2742C17.7047 27.2742 20.7782 26.0011 23.0442 23.7351C25.3103 21.469 26.5834 18.3956 26.5834 15.1909C26.5834 13.6041 26.2708 12.0328 25.6636 10.5668C25.0563 9.10075 24.1663 7.7687 23.0442 6.64665C21.9222 5.52461 20.5901 4.63456 19.1241 4.02732C17.6581 3.42007 16.0868 3.10753 14.5 3.10753M8.54294 22.7792C9.06252 21.6917 12.2284 20.6284 14.5 20.6284C16.7717 20.6284 19.9375 21.6917 20.4571 22.7792C18.7647 24.1277 16.664 24.8606 14.5 24.8575C12.2525 24.8575 10.1863 24.0842 8.54294 22.7792ZM22.185 21.0271C20.4571 18.9246 16.2642 18.2117 14.5 18.2117C12.7359 18.2117 8.54294 18.9246 6.81502 21.0271C5.52958 19.3531 4.83295 17.3015 4.83335 15.1909C4.83335 9.86211 9.17127 5.5242 14.5 5.5242C19.8288 5.5242 24.1667 9.86211 24.1667 15.1909C24.1667 17.39 23.4175 19.42 22.185 21.0271M14.5 7.94086C12.1559 7.94086 10.2709 9.82586 10.2709 12.17C10.2709 14.5142 12.1559 16.3992 14.5 16.3992C16.8442 16.3992 18.7292 14.5142 18.7292 12.17C18.7292 9.82586 16.8442 7.94086 14.5 7.94086ZM14.5 13.9825C14.0193 13.9825 13.5583 13.7916 13.2184 13.4517C12.8785 13.1117 12.6875 12.6507 12.6875 12.17C12.6875 11.6893 12.8785 11.2283 13.2184 10.8884C13.5583 10.5485 14.0193 10.3575 14.5 10.3575C14.9807 10.3575 15.4417 10.5485 15.7817 10.8884C16.1216 11.2283 16.3125 11.6893 16.3125 12.17C16.3125 12.6507 16.1216 13.1117 15.7817 13.4517C15.4417 13.7916 14.9807 13.9825 14.5 13.9825Z" fill="#202E2D"/>
</svg>
