<svg width="29" height="30" viewBox="0 0 29 30" fill="none" xmlns="http://www.w3.org/2000/svg">
<path d="M14.5 3.10753C12.9132 3.10753 11.3419 3.42007 9.87587 4.02732C8.40985 4.63456 7.07779 5.52461 5.95575 6.64665C3.68969 8.91272 2.41663 11.9862 2.41663 15.1909C2.41663 18.3956 3.68969 21.469 5.95575 23.7351C7.07779 24.8571 8.40985 25.7472 9.87587 26.3544C11.3419 26.9617 12.9132 27.2742 14.5 27.2742C17.7047 27.2742 20.7781 26.0011 23.0442 23.7351C25.3102 21.469 26.5833 18.3956 26.5833 15.1909C26.5833 13.6041 26.2707 12.0328 25.6635 10.5668C25.0563 9.10075 24.1662 7.7687 23.0442 6.64665C21.9221 5.52461 20.5901 4.63456 19.1241 4.02732C17.658 3.42007 16.0868 3.10753 14.5 3.10753M8.54288 22.7792C9.06246 21.6917 12.2283 20.6284 14.5 20.6284C16.7716 20.6284 19.9375 21.6917 20.457 22.7792C18.7646 24.1277 16.6639 24.8606 14.5 24.8575C12.2525 24.8575 10.1862 24.0842 8.54288 22.7792ZM22.185 21.0271C20.457 18.9246 16.2641 18.2117 14.5 18.2117C12.7358 18.2117 8.54288 18.9246 6.81496 21.0271C5.52952 19.3531 4.83289 17.3015 4.83329 15.1909C4.83329 9.86211 9.17121 5.5242 14.5 5.5242C19.8287 5.5242 24.1666 9.86211 24.1666 15.1909C24.1666 17.39 23.4175 19.42 22.185 21.0271M14.5 7.94086C12.1558 7.94086 10.2708 9.82586 10.2708 12.17C10.2708 14.5142 12.1558 16.3992 14.5 16.3992C16.8441 16.3992 18.7291 14.5142 18.7291 12.17C18.7291 9.82586 16.8441 7.94086 14.5 7.94086ZM14.5 13.9825C14.0193 13.9825 13.5582 13.7916 13.2183 13.4517C12.8784 13.1117 12.6875 12.6507 12.6875 12.17C12.6875 11.6893 12.8784 11.2283 13.2183 10.8884C13.5582 10.5485 14.0193 10.3575 14.5 10.3575C14.9807 10.3575 15.4417 10.5485 15.7816 10.8884C16.1215 11.2283 16.3125 11.6893 16.3125 12.17C16.3125 12.6507 16.1215 13.1117 15.7816 13.4517C15.4417 13.7916 14.9807 13.9825 14.5 13.9825Z" fill="#82FFC9"/>
</svg>
